# xmcd CD database file
#
# Track frame offsets:
#	150
#	47605
#	130875
#	142525
#	150102
#	158700
#	167925
#	183892
#	203477
#	226370
#	249152
#	276192
#	290090
#
# Disc length: 4121 seconds
#
# Revision: 4
# Processed by: cddbd v1.4PL0 Copyright (c) Steve Scherf et al.
# Submitted via: CDex 1.40PlusFr
#
DISCID=a110170d
DTITLE=Gidon Kremer - Silencio
DYEAR=1900
DGENRE=
TTITLE0=Arvo-Part_Tabula Rasa (1)
TTITLE1=Arvo-Part_Tabula Rasa (2)
TTITLE2=Phillip-Glass_Company for String Orchestra_1
TTITLE3=Phillip-Glass_Company for String Orchestra_2
TTITLE4=Phillip-Glass_Company for String Orchestra_3
TTITLE5=Phillip-Glass_Company for String Orchestra_4
TTITLE6=Vladimir_Martynov-Come In!_1
TTITLE7=Vladimir_Martynov-Come In!_2
TTITLE8=Vladimir_Martynov-Come In!_3
TTITLE9=Vladimir_Martynov-Come In!_4
TTITLE10=Vladimir_Martynov-Come In!_5
TTITLE11=Vladimir_Martynov-Come In!_6
TTITLE12=Arvo-Part_Darf_Ich_1
EXTD=
EXTT0=
EXTT1=
EXTT2=
EXTT3=
EXTT4=
EXTT5=
EXTT6=
EXTT7=
EXTT8=
EXTT9=
EXTT10=
EXTT11=
EXTT12=
PLAYORDER=
